<svg id="Component_4_1" data-name="Component 4 – 1" xmlns="http://www.w3.org/2000/svg" width="14.815" height="18" viewBox="0 0 14.815 18">
  <path id="Shape" d="M14.131,3.926H.684A.682.682,0,0,0,0,4.607v11.35A2.05,2.05,0,0,0,2.051,18H12.764a2.049,2.049,0,0,0,2.051-2.043V4.607A.682.682,0,0,0,14.131,3.926Zm-.684,12.031a.683.683,0,0,1-.684.681H2.051a.683.683,0,0,1-.684-.681V5.288h12.08V15.957Z" fill="#756688"/>
  <path id="Shape-2" data-name="Shape" d="M7.407,0A4.071,4.071,0,0,0,3.333,4.058V6.694a.679.679,0,0,0,1.358,0V4.058a2.716,2.716,0,0,1,5.432,0V6.694a.679.679,0,0,0,1.358,0V4.058A4.071,4.071,0,0,0,7.407,0Z" fill="#756688"/>
</svg>
