<svg id="Component_1_1" data-name="Component 1 – 1" xmlns="http://www.w3.org/2000/svg" width="388" height="443.227" viewBox="0 0 388 443.227">
  <path id="Path-8" d="M97.134,225.271C70.1,316.5,3.673,276.842.05,351.574s190.337,124.358,267.737,68.394,19.407-68.394,106-110.526S124.169,134.037,97.134,225.271Z" transform="translate(0 -0.773)" fill="#fbfbfb" fill-rule="evenodd"/>
  <path id="Path-10" d="M341.931,126.438l-2.984,4.958,7.461,3.542v-6.375Z" transform="translate(274.645 -228.656) rotate(57)" fill="rgba(54,226,134,0.51)" fill-rule="evenodd"/>
  <path id="Path-10-2" data-name="Path-10" d="M176.721,180.625l-2.984,4.958,7.461,3.542V182.75Z" transform="translate(128.073 433.628) rotate(-123)" fill="rgba(54,226,134,0.51)" fill-rule="evenodd"/>
  <path id="Path-10-3" data-name="Path-10" d="M175.016,122.188l-3.411,6.818,8.527,4.87v-8.766Z" transform="translate(369.242 242.711) rotate(176)" fill="rgba(54,226,134,0.51)" fill-rule="evenodd"/>
  <path id="Path-10-4" data-name="Path-10" d="M79.727,10.625l-2.984,4.958L84.2,19.125V12.75Z" transform="matrix(0.766, 0.643, -0.643, 0.766, 37.39, -49.019)" fill="rgba(54,226,134,0.51)" fill-rule="evenodd"/>
  <path id="Path-10-5" data-name="Path-10" d="M22.17,121.125l-2.984,4.339,7.461,3.1v-5.578Z" transform="translate(6.823 -0.355) rotate(-1)" fill="rgba(54,226,134,0.51)" fill-rule="evenodd"/>
  <path id="Path-10-6" data-name="Path-10" d="M6.608,60.563,3.2,67.38l8.527,4.87V63.484Z" transform="translate(-21.304 10.502) rotate(-28)" fill="rgba(54,226,134,0.51)" fill-rule="evenodd"/>
  <path id="Path-10-Copy" d="M342.144,235.875l5.267,8.5,2.194-8.5Z" transform="translate(319.854 658.949) rotate(-120)" fill="#115cf3" fill-rule="evenodd" opacity="0.5"/>
  <path id="Path-10-Copy-2" data-name="Path-10-Copy" d="M252.611,180.625l5.267,8.5,2.194-8.5Z" transform="translate(-15.763 328.571) rotate(-63)" fill="#115cf3" fill-rule="evenodd" opacity="0.5"/>
  <path id="Path-10-Copy-3" data-name="Path-10-Copy" d="M253.677,122.188l5.267,11.688,2.194-11.687Z" transform="translate(437.631 358.194) rotate(-153)" fill="#115cf3" fill-rule="evenodd" opacity="0.5"/>
  <path id="Path-10-Copy-4" data-name="Path-10-Copy" d="M252.611,12.75l3.01,8.5,1.254-8.5Z" transform="translate(12.451 61.358) rotate(-14)" fill="#115cf3" fill-rule="evenodd" opacity="0.5"/>
  <path id="Path-10-Copy-5" data-name="Path-10-Copy" d="M196.12,234.813l5.267,11.688,2.194-11.687Z" transform="matrix(-0.766, -0.643, 0.643, -0.766, 207.255, 552.699)" fill="#115cf3" fill-rule="evenodd" opacity="0.5"/>
  <path id="Path-10-Copy-6" data-name="Path-10-Copy" d="M173.737,60.563l6.019,11.688,2.508-11.687Z" transform="translate(277.531 -101.393) rotate(98)" fill="#115cf3" fill-rule="evenodd" opacity="0.5"/>
  <path id="Path-10-Copy-7" data-name="Path-10-Copy" d="M183.329,2.125l6.019,11.688,2.508-11.687Z" transform="translate(62.519 -124.249) rotate(42)" fill="#115cf3" fill-rule="evenodd" opacity="0.5"/>
  <path id="Path-10-Copy-8" data-name="Path-10-Copy" d="M100.192,243.313,105.458,255l2.194-11.687Z" transform="translate(-94.959 420.612) rotate(-107)" fill="#115cf3" fill-rule="evenodd" opacity="0.5"/>
  <path id="Path-10-Copy-9" data-name="Path-10-Copy" d="M86.335,125.375l3.01,7.438,1.254-7.437Z" transform="matrix(-0.602, -0.799, 0.799, -0.602, 47.603, 276.662)" fill="#115cf3" fill-rule="evenodd" opacity="0.5"/>
  <path id="Path-10-Copy-2-2" data-name="Path-10-Copy-2" d="M343.21,64.813l4.682,8.5q6.72-.383,7.023-1.7t-3.9-5.1Z" transform="matrix(0.515, 0.857, -0.857, 0.515, 237.482, -266.494)" fill="#6b10da" fill-rule="evenodd" opacity="0.5"/>
  <path id="Path-10-Copy-2-3" data-name="Path-10-Copy-2" d="M287.784,234.813l3.4,7.438q4.887-.335,5.107-1.488t-2.837-4.462Z" transform="translate(673.231 298.307) rotate(150)" fill="#6b10da" fill-rule="evenodd" opacity="0.5"/>
  <path id="Path-10-Copy-2-4" data-name="Path-10-Copy-2" d="M253.677,68l4.682,8.5q6.72-.383,7.023-1.7t-3.9-5.1Z" transform="matrix(-0.94, -0.342, 0.342, -0.94, 487.717, 228.138)" fill="#6b10da" fill-rule="evenodd" opacity="0.5"/>
  <path id="Path-10-Copy-2-5" data-name="Path-10-Copy-2" d="M88.467,185.938l5.107,11.688q7.331-.526,7.661-2.337t-4.256-7.013Z" transform="matrix(0.358, 0.934, -0.934, 0.358, 248.909, 33.718)" fill="#6b10da" fill-rule="evenodd" opacity="0.5"/>
  <path id="Path-10-Copy-2-6" data-name="Path-10-Copy-2" d="M78.874,62.688l6.384,11.688q9.164-.526,9.576-2.338t-5.32-7.012Z" transform="matrix(-0.857, 0.515, -0.515, -0.857, 205.622, 81.759)" fill="#6b10da" fill-rule="evenodd" opacity="0.5"/>
  <path id="Path-10-Copy-2-7" data-name="Path-10-Copy-2" d="M19.186,181.688l3.4,8.5q4.887-.383,5.107-1.7t-2.837-5.1Z" transform="translate(-31.074 361.481) rotate(-153)" fill="#6b10da" fill-rule="evenodd" opacity="0.5"/>
  <path id="Shape" d="M99.72,37.676,97.627,55.43,116.47,68.107V42.747Z" transform="translate(85 54.227)" fill="#fda57d"/>
  <path id="Shape-2" data-name="Shape" d="M58.491-274.094l8.393,58.477-4.43,60.564,54.539,12.914s6.74-51.978,2.329-68.916l-8.388-58.477H98.345l6.291,64.74-8.388,43.641-10.49-21.284c0-28.982,4.43-37.147-4.194-51.978l-8.37-39.682Z" transform="translate(264.31 54.227) rotate(180)" fill="#1a003a"/>
  <path id="Shape-3" data-name="Shape" d="M170.634,9.434c-2.113-5.689-14.674,2-14.674,2l-1.033,1.256,2.9,7.072Q172.747,15.122,170.634,9.434Z" transform="translate(95.551 127.016) rotate(-26)" fill="#fda57d"/>
  <path id="Shape-Copy-3" d="M17.685-34.948c-2.113,5.689-14.674-2-14.674-2L1.979-38.207l2.9-7.072Q19.8-40.637,17.685-34.948Z" transform="matrix(-0.899, -0.438, 0.438, -0.899, 121.043, 62.548)" fill="#fda57d"/>
  <path id="Shape-4" data-name="Shape" d="M75.437,45.174,38.127,41.9a32.584,32.584,0,0,0-15.537-4.221c-4.144-.052-8.34.7-10.151,3.536C8.294,47.7,0,134.955,0,134.955s30.179,20.549,59.429,14.3l4.829-68.488L77.509,61.834s2.6-.972,8.4-8.217S99.124,11.125,100.557,9.132L95.666,0Z" transform="translate(146.39 65.82)" fill="#6b10da"/>
  <path id="Path-9" d="M107.778-45.117c8.438,0,14.946,27.6,20.293,24.635C141.116-27.728,145.465,2.7,126.622-.2S94.733,1.254,91.834-23.381q-.09-8.136,1.449-11.593C97.249-43.876,103.43-45.117,107.778-45.117Z" transform="translate(316.158 54.227) rotate(180)" fill="#1a003a" fill-rule="evenodd"/>
  <ellipse id="Oval" cx="18.843" cy="18.838" rx="18.843" ry="18.838" transform="translate(176.829 62.922)" fill="#fda57d"/>
  <path id="Shape-5" data-name="Shape" d="M117.92,256.49l4.55,16.952s-24.149,9.431-29.775,4.9c-3.888-3.13,6.2-7.133,12.8-9.306,2.951-.971,5.205-1.578,5.205-1.578Z" transform="translate(85 54.227)" fill="#e5342a"/>
  <path id="Shape-Copy-2" d="M78.784,255.041l6,18.8s-24.149,9.431-29.775,4.9,18.008-10.884,18.008-10.884Z" transform="translate(85 54.227)" fill="#e5342a"/>
  <path id="Shape-Copy" d="M150.1-119.5l-39.036,12.939c-4.729,2.7-29.127-105.458,0-99.17l4.809,68.928,34.847-.921s4.036,2.436,9.809,9.728S176.573-104.2,178-102.19L173.129-93Z" transform="translate(275 -0.773) rotate(180)" fill="#6b10da"/>
</svg>
